# xmcd
#
# Track frame offsets: 
#        150
#        11433
#        22513
#        34694
#        46847
#        57835
#        71822
#        85170
#        99250
#        112517
#        124374
#        137737
#        152271
#        162817
#        174639
#        187579
#        200526
#        213317
#        228001
#        241626
#        254405
#        265144
#        278264
#        291439
#
# Disc length: 4063 seconds
#
# Revision: 0
# Processed by: cddbd v1.4PL0 Copyright (c) Steve Scherf et al.
# Submitted via: ExactAudioCopy v0.90b4
#
DISCID=260fdd18
DTITLE=Amos Milburn - Booze, Babes, Blues and Boogie - Disk 2
DYEAR=1900
DGENRE=Blues
TTITLE0=My Baby's Boogying
TTITLE1=Amos' Blues
TTITLE2=Cinch Blues
TTITLE3=Everything I Do Is Wrong
TTITLE4=Blues at Sundown
TTITLE5=Sad and Blue
TTITLE6=That's My Chick
TTITLE7=Bye Bye Boogie
TTITLE8=Empty Arms Blues
TTITLE9=It Took a Long Long Time
TTITLE10=Bewildered
TTITLE11=Bow-Wow
TTITLE12=Real Pretty Mama
TTITLE13=Johnson Rag
TTITLE14=Square Dance Boogie
TTITLE15=How Long Has this Train Been Gone?
TTITLE16=Sax Shack Boogie
TTITLE17=Hard Luck Blues
TTITLE18=Two Years of Torture
TTITLE19=I'm Gonna Tell My Mama
TTITLE20=Everybody Clap Hands
TTITLE21=Ain't Nothing Shaking
TTITLE22=That Was Your Last Mistake
TTITLE23=Just One More Drink
EXTD=
EXTT0=
EXTT1=
EXTT2=
EXTT3=
EXTT4=
EXTT5=
EXTT6=
EXTT7=
EXTT8=
EXTT9=
EXTT10=
EXTT11=
EXTT12=
EXTT13=
EXTT14=
EXTT15=
EXTT16=
EXTT17=
EXTT18=
EXTT19=
EXTT20=
EXTT21=
EXTT22=
EXTT23=
PLAYORDER=
